<?xml version="1.0" encoding="utf-8"?>
<!-- Generator: Adobe Illustrator 23.1.1, SVG Export Plug-In . SVG Version: 6.00 Build 0)  -->
<svg version="1.1" id="Layer_1" xmlns="http://www.w3.org/2000/svg" xmlns:xlink="http://www.w3.org/1999/xlink" x="0px" y="0px"
	 viewBox="0 0 16 16" style="enable-background:new 0 0 16 16;" xml:space="preserve">
<path d="M1.0949725,12.1234283l6.3459578,3.6136961c0.53755,0.3213663,0.7821417,0.0959606,1.003499-0.0028505l6.7310696-3.8615103
	c0.2395639-0.1519156,0.4042749-0.2833757,0.4042749-0.5521593c0-0.2636185-0.2037039-0.4045153-0.3261604-0.4803972
	l-1.8125544-1.2102547l1.7227535-1.0000134c0.2786541-0.1402302,0.5766001-0.4557495,0.5766001-0.8486834V5.1203709
	c0-0.6918035-0.3958101-0.9089923-0.5860291-1.0132737C15.1367712,4.097363,8.550108,0.2966039,8.550108,0.2966039
	C7.9785123-0.080926,7.5110455,0.1679309,7.3182244,0.2964754l-6.6250372,3.851687
	C0.3961895,4.3495932,0.3015942,4.5650229,0.3034495,4.7859139c0.0029716,0.3313966,0.3447613,0.5822134,0.3914807,0.6128936
	l1.7207384,1.0225101L0.5871792,7.5358524C0.3008794,7.7111402,0.2805436,8.0348511,0.2805436,8.0348511l0.0004417-0.0000963
	c-0.020649,0.1459084-0.021396,2.5947695-0.021396,2.5947695C0.2592199,11.2717323,0.3184042,11.6901751,1.0949725,12.1234283z
	 M14.3848991,11.3731947l-6.4502468,3.6109266l-6.2349701-3.5135441l1.9557248-1.1218519l4.0469899,2.3135614
	c0.1227055,0.0876484,0.3438458,0.0813599,0.4594913,0.0186253l4.366765-2.5259714L14.3848991,11.3731947z M14.9330187,7.5197892
	l-1.742363-1.0710406l1.737978-1.0338778L14.9330187,7.5197892z M8.4130421,1.2934208l5.9401503,3.4636569l-1.9486876,1.1918344
	L8.4093876,3.5276067L8.4130421,1.2934208z M7.9331908,4.2862082l3.6038737,2.1850896L7.9331908,8.5519934
	c-0.0023131,0.0010281-0.004241,0-0.004241,0L4.2442946,6.4246826l3.684607-2.1384745H7.9331908z M1.4051901,4.7838416
	l6.0583248-3.4984524v2.2422576L3.2588584,5.9013L1.4051901,4.7838416z M3.320179,6.96102l4.3761139,2.5252805
	C7.836266,9.5652742,8.0155382,9.5661983,8.15625,9.4888945l4.2031879-2.5189776l1.8999929,1.1519961l-6.3309627,3.6164675
	L1.4840678,8.026659L3.320179,6.96102z M1.1137743,8.868041L2.808346,9.8358965l-1.6945717,0.9836617V8.868041z"/>
</svg>
