<?xml version="1.0" encoding="utf-8"?>
<!-- Generator: Adobe Illustrator 24.1.0, SVG Export Plug-In . SVG Version: 6.00 Build 0)  -->
<svg version="1.1" id="logo-tertiary-tealOnTransparent"
	 xmlns="http://www.w3.org/2000/svg" xmlns:xlink="http://www.w3.org/1999/xlink" x="0px" y="0px" viewBox="0 0 83.4 18.8"
	 style="enable-background:new 0 0 83.4 18.8;" xml:space="preserve">
<style type="text/css">
	.st0{fill:#FFFFFF;}
</style>
<g id="Layer_2_1_">
	<g id="content">
		<path class="st0" d="M3.2,3v5.3h5.7v1.9H3.2v7.7H0V1.1h9.6V3H3.2z"/>
		<path class="st0" d="M10.9,17.8V4.7H14v13.1H10.9z"/>
		<path class="st0" d="M24.5,17.8V8.5c0-1.7-1.6-2.3-3.3-2.3c-0.8,0-1.7,0.1-2.5,0.4v11.2h-3V5.3c1.8-0.7,3.7-1,5.7-0.9
			c3.7,0,6.2,1.2,6.2,4v9.4H24.5z"/>
		<path class="st0" d="M31.8,12.3c0.3,2.6,1.9,3.9,4.5,3.9c1.4,0,2.7-0.2,4-0.8l0.7,1.8c-1.6,0.7-3.3,1-5,0.9
			c-4.3,0-7.1-2.4-7.1-6.9c0-4.3,2.6-6.9,6.5-6.9s6.1,2.3,6.1,6.7L31.8,12.3z M35.3,6.1c-2.1,0-3.7,1.5-3.7,4.8l7-0.9
			C38.6,7.3,37.3,6.1,35.3,6.1L35.3,6.1z"/>
		<path class="st0" d="M51.6,17.8l-3.3-5l0,0l-3.4,5h-3.2l5.1-6.8l-4.6-6.3h3.3l3,4.4l0,0l3.1-4.4h3l-4.7,6.1l5.2,7H51.6z"/>
		<path class="st0" d="M61.1,18.1c-3,0-4.1-1.8-4.1-3.6V6.4h-2V4.7h2V1.8L60,1v3.7h2.8v1.7H60v8c0,1,0.7,1.8,1.7,1.8
			c0.1,0,0.2,0,0.3,0c0.3,0,0.6,0,0.8-0.1v1.7C62.3,18,61.7,18.1,61.1,18.1z"/>
		<path class="st0" d="M71.4,6.5c-1.3-0.3-2.6-0.3-3.8,0.1v11.2h-3V5.3c1.9-0.7,4-1,6-0.9c0.5,0,1.1,0,1.5,0.1L71.4,6.5z"/>
		<path class="st0" d="M77.9,18.2c-4.2,0-6.1-1.5-6.1-4c0-3.5,4-4.5,8.8-4.9V8.5c0-1.8-1.3-2.3-3.3-2.3c-1.3,0-2.6,0.3-3.9,0.8
			l-0.7-1.6c1.6-0.6,3.4-0.9,5.1-0.9c3.2,0,5.6,1.2,5.6,4.5v8.3C81.7,17.9,79.8,18.2,77.9,18.2z M80.5,10.6
			c-3.5,0.3-5.9,0.9-5.9,3.5c0,1.8,1.4,2.5,3.5,2.5c0.8,0,1.6-0.1,2.4-0.4V10.6z"/>
		<path class="st0" d="M10.9,3V1.1H14V3H10.9z"/>
	</g>
</g>
</svg>
