<?xml version="1.0" encoding="utf-8"?>
<!-- Generator: Adobe Illustrator 24.1.0, SVG Export Plug-In . SVG Version: 6.00 Build 0)  -->
<svg version="1.1" id="logo-tertiary-tealOnTransparent"
	 xmlns="http://www.w3.org/2000/svg" xmlns:xlink="http://www.w3.org/1999/xlink" x="0px" y="0px" viewBox="0 0 83.4 18.8"
	 style="enable-background:new 0 0 83.4 18.8;" xml:space="preserve">
<style type="text/css">
	.st0{fill-rule:evenodd;clip-rule:evenodd;fill:#FFFFFF;}
</style>
<path class="st0" d="M49.9,5.3c-1.2,0-2.2,0.3-3.1,0.8c0-2.8,0-5.3,0.1-6.1l-5.8,1v0.5l0.6,0.1c0.8,0.2,1,0.6,1.2,1.6
	c0.2,2.1,0.1,13.1,0,14.9c1.6,0.3,3.2,0.6,4.8,0.6c4.6,0,7.3-2.8,7.3-7.3C55.1,7.9,52.8,5.3,49.9,5.3L49.9,5.3z M47.9,17.9
	c-0.3,0-0.8,0-1-0.1c-0.1-1.2-0.2-6.3-0.1-10.8c0.5-0.2,0.9-0.3,1.3-0.3c1.9,0,2.9,2.2,2.9,5C51,15.2,49.7,17.9,47.9,17.9L47.9,17.9
	z"/>
<path class="st0" d="M19.4,0.3H4.2v0.8L5,1.2c1.1,0.2,1.6,0.9,1.7,2.5c0.3,3.1,0.2,8.7,0,11.4c-0.2,1.6-0.6,2.4-1.7,2.5l-0.9,0.2
	v0.7h9.7v-0.7l-1-0.2c-1.1-0.1-1.6-0.9-1.7-2.5C11.1,14,11,12.2,11,9.9l2.1,0.1c1.3,0,1.9,1,2.2,2.5H16V6.4h-0.8
	c-0.3,1.5-0.9,2.5-2.2,2.5L11,9c0-2.9,0.1-5.7,0.2-7.3h3c2.3,0,3.5,1.5,4.4,4.1l0.9-0.3L19.4,0.3L19.4,0.3z"/>
<path class="st0" d="M24.3,5.2c4.3,0,6.5,2.9,6.5,6.8c0,3.7-2.4,6.8-6.7,6.8c-4.3,0-6.5-2.9-6.5-6.8C17.6,8.3,20,5.2,24.3,5.2
	L24.3,5.2z M24,6c-1.9,0-2.4,2.6-2.4,6c0,3.3,0.9,6,2.6,6c2,0,2.5-2.6,2.5-6C26.7,8.7,25.8,6,24,6L24,6z"/>
<path class="st0" d="M56.2,12.1c0-3.5,2.2-6.9,6.6-6.9c3.6,0,5.3,2.7,5.3,6.2h-8c-0.1,3.2,1.5,5.5,4.6,5.5c1.4,0,2.1-0.3,2.9-0.9
	l0.3,0.4c-0.9,1.2-2.8,2.4-5.2,2.4C58.9,18.8,56.2,16,56.2,12.1L56.2,12.1z M60.2,10.4l4.1-0.1c0-1.7-0.3-4.3-1.7-4.3
	C61,6,60.2,8.5,60.2,10.4L60.2,10.4z"/>
<path class="st0" d="M78.4,5.9c-1-0.4-2.4-0.7-4-0.7c-3.2,0-5.2,1.9-5.2,4.1c0,2.2,1.5,3.2,3.5,3.9c2.2,0.8,2.8,1.4,2.8,2.4
	c0,1-0.8,2-2.2,2c-1.6,0-2.8-0.9-3.8-3.5L69,14.2l0.1,3.8c1,0.4,2.9,0.8,4.6,0.8c3.4,0,5.5-1.7,5.5-4.4c0-1.8-0.9-2.8-3.2-3.7
	c-2.4-0.9-3.3-1.6-3.3-2.7c0-1.1,0.8-1.9,1.8-1.9c1.6,0,2.6,0.9,3.4,3.3l0.6-0.2L78.4,5.9L78.4,5.9z"/>
<path class="st0" d="M42,5.5c-1.5-0.9-4.1-0.4-5.4,2.7l0.1-3l-5.8,1.1v0.5l0.6,0.1c0.8,0.1,1.1,0.5,1.2,1.6c0.2,2.1,0.1,5.7,0,7.5
	c-0.1,1-0.4,1.6-1.2,1.6l-0.6,0.1v0.7h8v-0.7l-1-0.1c-0.9-0.1-1.1-0.6-1.2-1.6c-0.2-1.6-0.2-4.9-0.1-7c0.4-0.6,2.3-1.1,4.1,0L42,5.5
	L42,5.5z"/>
</svg>
