<?xml version="1.0" encoding="utf-8"?>
<!-- Generator: Adobe Illustrator 24.1.0, SVG Export Plug-In . SVG Version: 6.00 Build 0)  -->
<svg version="1.1" id="Layer_1" xmlns="http://www.w3.org/2000/svg" xmlns:xlink="http://www.w3.org/1999/xlink" x="0px" y="0px"
	 viewBox="0 0 203.4 203" style="enable-background:new 0 0 203.4 203;" xml:space="preserve">
<style type="text/css">
	.st0{fill:#FFFFFF;}
</style>
<path class="st0" d="M0.4,0v203h203V0H0.4z M96,49c-3.2-10.2-6.7-13.5-24.7-13.5H57.4c-4.2,0-5.1,0.9-5.1,4.7v29h6.8
	c14.3,0,17.4-2.6,19.1-12.1h3.5v32.4h-3.5C76.4,78.7,71,76,59.1,76h-6.8v29.9l0,0c0,9.6,2.6,10.7,13.5,11.1v3.5H22.4V117
	c9-0.4,11.6-1.5,11.6-11.1V43.4c0-9.6-2.6-10.7-11.3-11.1v-3.5h76.6L99.8,49H96z M183.2,49c-2.9-9.9-7.3-13.5-16.9-13.5H155v70.4
	c0,9.6,2.6,10.7,12.9,11.1v3.5h-44.2V117c10.4-0.4,12.9-1.5,12.9-11.1V35.6h-11.3c-9.7,0-14,3.6-16.9,13.5h-4.6l1.9-20.2h80.4
	l1.9,20.2L183.2,49L183.2,49z"/>
</svg>
