<?xml version="1.0" encoding="utf-8"?>
<!-- Generator: Adobe Illustrator 24.1.0, SVG Export Plug-In . SVG Version: 6.00 Build 0)  -->
<svg version="1.1" id="Layer_1" xmlns="http://www.w3.org/2000/svg" xmlns:xlink="http://www.w3.org/1999/xlink" x="0px" y="0px"
	 viewBox="0 0 203.4 286.3" style="enable-background:new 0 0 203.4 286.3;" xml:space="preserve">
<style type="text/css">
	.st0{fill:#FFFFFF;}
</style>
<path class="st0" d="M0.4,0v203h203V0H0.4z M96,49c-3.2-10.2-6.7-13.5-24.7-13.5H57.4c-4.2,0-5.1,0.9-5.1,4.7v29h6.8
	c14.3,0,17.4-2.6,19.1-12.1h3.5v32.4h-3.5C76.4,78.7,71,76,59.1,76h-6.8v29.9l0,0c0,9.6,2.6,10.7,13.5,11.1v3.5H22.4V117
	c9-0.4,11.6-1.5,11.6-11.1V43.4c0-9.6-2.6-10.7-11.3-11.1v-3.5h76.6L99.8,49H96z M183.2,49c-2.9-9.9-7.3-13.5-16.9-13.5h-11.3v70.4
	c0,9.6,2.6,10.7,12.9,11.1v3.5h-44.2V117c10.4-0.4,12.9-1.5,12.9-11.1V35.6h-11.3c-9.7,0-14,3.6-16.9,13.5h-4.6l1.9-20.2h80.4
	l1.9,20.2H183.2z"/>
<path id="XMLID_42_" class="st0" d="M7.7,237c0,2.5,0.7,2.7,3.5,2.8v0.9H0v-0.9c2.3-0.1,3-0.4,3-2.8v-16c0-2.5-0.7-2.7-2.9-2.8v-0.9
	h19.6l0.1,5.2h-1c-0.8-2.6-1.7-3.4-6.3-3.4H9c-1.1,0-1.3,0.2-1.3,1.2v7.4h4c3.7,0,4.5-0.7,4.9-3.1h0.9v8.3h-0.9
	c-0.5-2.8-1.9-3.5-4.9-3.5h-4V237L7.7,237z M30.8,237c0,2.5,0.7,2.7,3.5,2.8v0.9H22.7v-0.9c2.8-0.1,3.5-0.4,3.5-2.8v-16
	c0-2.5-0.6-2.7-3.5-2.8v-0.9h11.6v0.9c-2.8,0.1-3.5,0.4-3.5,2.8V237z M58.5,221.7c0-2.3-0.6-3.2-3.2-3.5v-0.9h8.3v0.9
	c-2.6,0.3-3.2,1.2-3.2,3.5v19.6h-1.2l-16-18.5v13.6c0,2.3,0.6,3.2,3.2,3.5v0.9h-8.3v-0.9c2.6-0.3,3.2-1.2,3.2-3.5v-15.8
	c-0.8-1.4-1.7-2.1-3.2-2.4v-0.9h6.4l14,16.2V221.7z M71,232.3l3.5-9.3l3.5,9.3H71z M87.8,240.8v-0.9c-1.8,0-2.2-0.7-3.1-2.9
	l-8.3-20.2h-1.1l-8.6,20.9c-0.6,1.5-1.4,1.9-2.9,2.2v0.9h7.5v-0.9c-1.6,0-2.4-0.4-2.4-1.5c0-1,1.1-3.6,1.3-4.3h8.5
	c0.3,0.8,1.4,3.4,1.4,4.3c0,1.1-0.9,1.5-2.5,1.5v0.9L87.8,240.8L87.8,240.8z M110.6,221.7c0-2.3-0.6-3.2-3.2-3.5v-0.9h8.3v0.9
	c-2.6,0.3-3.2,1.2-3.2,3.5v19.6h-1.2l-16-18.5l0,13.6c0,2.3,0.6,3.2,3.2,3.5v0.9h-8.3v-0.9c2.6-0.3,3.2-1.2,3.2-3.5v-15.8
	c-0.8-1.4-1.7-2.1-3.2-2.4v-0.9h6.4l14,16.2L110.6,221.7L110.6,221.7z M140.3,235.2c-2.5,4.2-5.7,6.1-10.5,6.1
	c-7.6,0-12.2-5-12.2-12.5c0-5.3,4.2-12.1,12.4-12.1c2.5,0,5.9,1.4,6.5,1.4c0.7,0,0.9-0.4,1.5-1.4h1.2l0.5,7.8h-1
	c-1.4-3.6-3.8-6.3-7.9-6.3c-5.5,0-7.9,6-7.9,10.5c0,6.3,2.7,10.6,8.6,10.6c4.6,0,7.1-3.4,8.1-4.9L140.3,235.2z M151.6,237
	c0,2.5,0.7,2.7,3.5,2.8v0.9h-11.6v-0.9c2.8-0.1,3.5-0.4,3.5-2.8v-16c0-2.5-0.7-2.7-3.5-2.8v-0.9h11.6v0.9c-2.8,0.1-3.5,0.4-3.5,2.8
	V237z M164.7,232.3l3.5-9.3l3.5,9.3H164.7z M181.5,240.8v-0.9c-1.8,0-2.2-0.7-3.1-2.9l-8.3-20.2H169l-8.6,20.9
	c-0.6,1.5-1.4,1.9-2.9,2.2v0.9h7.5v-0.9c-1.6,0-2.4-0.4-2.4-1.5c0-1,1.1-3.6,1.3-4.3h8.5c0.3,0.8,1.4,3.4,1.4,4.3
	c0,1.1-0.9,1.5-2.5,1.5v0.9L181.5,240.8L181.5,240.8z M183.6,240.8v-0.9c2.2-0.1,2.9-0.4,2.9-2.8v-16c0-2.5-0.7-2.7-2.9-2.8v-0.9
	h10.8v0.9c-2.6,0.1-3.2,0.4-3.2,2.8v16.5c0,1.4,0.4,1.9,3,1.9c4.2,0,6.7-0.8,8.7-4.9h0.9l-1.6,6.3H183.6z M5.2,277.8
	c2.7-0.1,3.3-0.4,3.3-2.8v-18H5.6c-2.7,0-3.8,1.1-4.6,4.3H0l0.6-6h20.6l0.6,6h-1c-0.8-3.2-1.8-4.3-4.6-4.3h-2.9v18
	c0,2.5,0.7,2.7,3.3,2.8v0.9H5.2V277.8z M32.3,274.9c0,2.5,0.7,2.7,3.5,2.8v0.9H24.1v-0.9c2.8-0.1,3.5-0.4,3.5-2.8v-16
	c0-2.5-0.7-2.7-3.5-2.8v-0.9h11.6v0.9c-2.8,0.1-3.5,0.4-3.5,2.8V274.9z M60.4,255.2h8.1v0.9c-2.2,0.1-2.9,0.4-2.9,2.8v16
	c0,2.5,0.7,2.7,2.9,2.8v0.9H57.9v-0.9c2.3-0.1,3-0.4,3-2.8v-16.5h-0.1l-7.8,20.5h-1.1l-7.7-20.5h-0.1v15.8c0,2.3,0.6,3.2,3.2,3.5
	v0.9H39v-0.9c2.6-0.3,3.2-1.2,3.2-3.5v-16c0-1.6-0.7-2.2-3.2-2.2v-0.9h8.5l6.2,16.3L60.4,255.2z M71.8,278.6v-0.9
	c2.2-0.1,2.9-0.4,2.9-2.8v-16c0-2.5-0.7-2.7-2.9-2.8v-0.9h19.6l0.1,5.2h-1c-0.8-2.6-1.7-3.4-6.3-3.4h-3.6c-1.1,0-1.3,0.2-1.3,1.2
	v7.4h4c3.7,0,4.5-0.7,4.9-3.1h0.9v8.3h-0.9c-0.5-2.8-1.9-3.4-4.9-3.4h-4v8.1c0,1.4,0.4,1.9,4.6,1.9c4.2,0,6.7-0.8,8.7-4.9h0.9
	l-1.6,6.3H71.8L71.8,278.6z M96.6,271.3h0.9c1,3.1,4,6.4,7.4,6.4c3,0,4-2.1,4-3.9c0-5.4-12.2-6.4-12.2-13.1c0-3.2,3.1-6,6.7-6
	c3.5,0,4.8,1.2,6.3,1.2c0.7,0,1.1-0.5,1.2-1.2h0.9v7.5h-0.9c-1-3.4-3.4-5.9-6.6-5.9c-2.6,0-3.6,1.7-3.6,3.3
	c0,4.8,12.2,4.9,12.2,13.2c0,3.7-3,6.5-7.3,6.5c-4.1,0-5.2-1.4-6.8-1.4c-0.6,0-1,0.4-1.2,1.2h-1.2L96.6,271.3L96.6,271.3z"/>
</svg>
