<?xml version="1.0" encoding="UTF-8"?>
<svg width="61px" height="60px" viewBox="0 0 61 60" version="1.1" xmlns="http://www.w3.org/2000/svg" xmlns:xlink="http://www.w3.org/1999/xlink">
    <title>Group</title>
    <defs>
        <rect id="path-1" x="0.5" y="0" width="60" height="60"></rect>
        <polygon id="path-3" points="0 0.161290323 30 0.161290323 30 35.1612903 0 35.1612903"></polygon>
    </defs>
    <g id="Main-Files" stroke="none" stroke-width="1" fill="none" fill-rule="evenodd">
        <g id="05_App-Landing-Copy-7" transform="translate(-1096.000000, -1106.000000)">
            <g id="Company-News" transform="translate(137.000000, 1004.000000)">
                <g id="Group" transform="translate(143.000000, 53.000000)">
                    <g id="News/Style-1" transform="translate(780.000000, 0.000000)">
                        <g id="Group" transform="translate(36.000000, 49.000000)">
                            <mask id="mask-2" fill="white">
                                <use xlink:href="#path-1"></use>
                            </mask>
                            <use id="Rectangle" fill="#EEEEEE" xlink:href="#path-1"></use>
                            <g id="Group-3" mask="url(#mask-2)">
                                <g transform="translate(16.000000, 12.000000)">
                                    <mask id="mask-4" fill="white">
                                        <use xlink:href="#path-3"></use>
                                    </mask>
                                    <g id="Clip-2" stroke="none" fill="none"></g>
                                    <path d="M16.5741374,27.4140874 C18.7034503,27.4140874 20.2780764,26.1382813 20.2780764,23.8589564 C20.2780764,21.398267 18.611084,20.3047876 16.5741374,20.3047876 L9.72192357,20.3047876 L9.72192357,27.5050103 L16.5741374,27.5050103 L16.5741374,27.4140874 Z M15.7403968,13.8333908 C17.5926107,13.8333908 18.9815267,12.8308343 18.9815267,10.7343172 C18.9815267,8.72920411 17.5926107,7.72664755 15.6480305,7.72664755 L9.62955723,7.72664755 L9.62955723,13.7419869 L15.7403968,13.7419869 L15.7403968,13.8333908 Z M0,0.161290323 L17.5002444,0.161290323 C20.8332519,0.161290323 23.3334962,0.981520138 25.1852214,2.34873019 C27.2221679,3.98967089 28.3334962,6.35895643 28.3334962,9.27570328 C28.3334962,12.6485075 26.9445802,14.7445435 24.1667481,16.0208307 L24.1667481,16.2031574 C27.8701984,17.3880407 30,20.66896 30,24.5882634 C30,28.3257211 28.5182289,31.2419869 26.1113283,33.0647733 C24.0738931,34.5233873 21.4817711,35.1612903 17.9630535,35.1612903 L0,35.1612903 L0,0.161290323 Z" id="Fill-1" stroke="none" fill="#000000" fill-rule="evenodd" mask="url(#mask-4)"></path>
                                </g>
                            </g>
                        </g>
                    </g>
                </g>
            </g>
        </g>
    </g>
</svg>