<?xml version="1.0" encoding="UTF-8"?>
<svg width="61px" height="60px" viewBox="0 0 61 60" version="1.1" xmlns="http://www.w3.org/2000/svg" xmlns:xlink="http://www.w3.org/1999/xlink">
    <title>Group</title>
    <defs>
        <rect id="path-1" x="0.5" y="0" width="60" height="60"></rect>
        <polygon id="path-3" points="0.162162162 0 29.1621622 0 29.1621622 34 0.162162162 34"></polygon>
    </defs>
    <g id="Main-Files" stroke="none" stroke-width="1" fill="none" fill-rule="evenodd">
        <g id="05_App-Landing-Copy-7" transform="translate(-316.000000, -1106.000000)">
            <g id="Company-News" transform="translate(137.000000, 1004.000000)">
                <g id="Group" transform="translate(143.000000, 53.000000)">
                    <g id="News/Style-1-Copy-4">
                        <g id="Group" transform="translate(36.000000, 49.000000)">
                            <mask id="mask-2" fill="white">
                                <use xlink:href="#path-1"></use>
                            </mask>
                            <use id="Rectangle" fill="#2D2D2D" xlink:href="#path-1"></use>
                            <g id="Group-3" mask="url(#mask-2)">
                                <g transform="translate(15.837838, 13.000000)">
                                    <mask id="mask-4" fill="white">
                                        <use xlink:href="#path-3"></use>
                                    </mask>
                                    <g id="Clip-2" stroke="none" fill="none"></g>
                                    <path d="M28.9984754,0 L0.162162162,0 L0.162162162,1.45663532 L1.80092236,1.61837981 C3.93074291,1.94280372 4.75012301,3.23675961 5.07655042,6.31364461 C5.56950311,12.1420558 5.40487016,22.6657317 5.07655042,27.6854204 C4.75012301,30.7604356 3.93074291,32.2180058 1.80092236,32.3797503 L0.162162162,32.7041742 L0.162162162,34 L18.6767462,34 L18.6767462,32.7041742 L16.7106124,32.3797503 C14.5807919,32.2180058 13.7614118,30.7604356 13.4340382,27.6854204 C13.2694052,25.5799373 13.1057184,22.1795633 13.1057184,17.9704669 L17.037986,18.1331463 C19.4970724,18.1331463 20.6419338,20.0750151 21.1339403,22.8284112 L22.6090137,22.8284112 L22.6090137,11.3333333 L21.1339403,11.3333333 C20.6419338,14.0848595 19.4970724,16.0276632 17.037986,16.0276632 L13.1057184,16.1894077 C13.1057184,10.6854204 13.2694052,5.50398724 13.4340382,2.42803718 L19.1668604,2.42803718 C23.5920806,2.42803718 25.8855879,5.18049827 27.523402,10.0375076 L29.1621622,9.55133916 L28.9984754,0 Z" id="Fill-1" stroke="none" fill="#FFFFFF" fill-rule="evenodd" mask="url(#mask-4)"></path>
                                </g>
                            </g>
                        </g>
                    </g>
                </g>
            </g>
        </g>
    </g>
</svg>