<?xml version="1.0" encoding="UTF-8"?>
<svg width="60px" height="60px" viewBox="0 0 60 60" version="1.1" xmlns="http://www.w3.org/2000/svg" xmlns:xlink="http://www.w3.org/1999/xlink">
    <title>Group 4</title>
    <g id="Main-Files" stroke="none" stroke-width="1" fill="none" fill-rule="evenodd">
        <g id="05_App-Landing-Copy-7" transform="translate(-316.000000, -1498.000000)">
            <g id="Group-4" transform="translate(316.000000, 1498.000000)">
                <polygon id="Fill-1" fill="#FCD0AF" points="0 60 60 60 60 0 0 0"></polygon>
                <path d="M54.4487926,9 L30.6455768,9 L30.0931846,14.9564497 L31.458319,14.9564497 C32.3297065,12.0402129 33.6107232,10.9845016 36.476054,10.9845016 L39.830985,10.9845016 L39.830985,31.7103079 C39.830985,34.5331945 39.0724454,34.8471103 35.9983014,34.9675527 L35.9983014,36 L49.0978451,36 L49.0978451,34.9675527 C46.0222202,34.8471103 45.2636806,34.5331945 45.2636806,31.7103079 L45.2636806,10.9845016 L48.6174268,10.9845016 C51.4836461,10.9845016 52.7661438,12.0399184 53.6363466,14.9564497 L55,14.9564497 L54.4487926,9 Z M14.8664128,31.7103079 C14.8664128,34.5331945 15.6237676,34.8471103 18.8587421,34.9675527 L18.8587421,36 L6,36 L6,34.9675527 C8.67517756,34.8471103 9.43371717,34.5331945 9.43371717,31.7103079 L9.43371717,13.2893976 C9.43371717,10.4665111 8.67517756,10.1490615 6.07997099,10.0321529 L6.07997099,9 L28.762112,9 L28.9235349,14.9532104 L27.8051259,14.9532104 C26.8472512,11.9365559 25.8073322,10.9845016 20.496074,10.9845016 L16.3805301,10.9845016 C15.1457189,10.9845016 14.8661166,11.2616074 14.8661166,12.3741534 L14.8661166,20.9131938 L16.8926406,20.9131938 C21.1269562,20.9131938 22.045734,20.154613 22.5643606,17.3352602 L23.6025025,17.3352602 L23.6025025,26.8661097 L22.5643606,26.8661097 C22.006637,23.689258 20.4078097,22.8974009 16.8926406,22.8974009 L14.8661166,22.8974009 L14.8661166,31.7103079 L14.8664128,31.7103079 Z" id="Fill-2" fill="#3E474F"></path>
            </g>
        </g>
    </g>
</svg>